<svg xmlns="http://www.w3.org/2000/svg" viewBox="0 0 242.667 242.667"><path d="M168.496 111.025h15.219v65.454a7.236 7.236 0 0 1-7.236 7.236H66.188a7.236 7.236 0 0 1-7.236-7.236v-65.454h15.219a48.424 48.424 0 0 0-1.115 10.308c0 26.663 21.614 48.277 48.277 48.277s48.277-21.614 48.277-48.277c0-3.539-.391-6.986-1.114-10.308zm-47.163 42.827c17.959 0 32.518-14.559 32.518-32.518s-14.559-32.518-32.518-32.518-32.518 14.559-32.518 32.518c0 17.959 14.559 32.518 32.518 32.518zm38.96-65.915h12.385a6.575 6.575 0 0 0 6.575-6.575V68.978a6.574 6.574 0 0 0-6.575-6.574h-12.385a6.574 6.574 0 0 0-6.574 6.574v12.385a6.574 6.574 0 0 0 6.574 6.574zM242.667 0v242.667H0V0h242.667zm-44.044 63.539c0-10.766-8.728-19.494-19.494-19.494H63.539c-10.766 0-19.494 8.728-19.494 19.494v115.59c0 10.766 8.728 19.494 19.494 19.494h115.59c10.766 0 19.494-8.728 19.494-19.494V63.539z" fill="#7062ff"/></svg>